<?xml version="1.0" standalone="no"?>
<!DOCTYPE svg PUBLIC "-//W3C//DTD SVG 20010904//EN"
 "http://www.w3.org/TR/2001/REC-SVG-20010904/DTD/svg10.dtd">
<svg version="1.0" xmlns="http://www.w3.org/2000/svg"
 width="1000.000000pt" height="1000.000000pt" viewBox="0 0 1000.000000 1000.000000"
 preserveAspectRatio="xMidYMid meet">
<metadata>
Created by potrace 1.14, written by Peter Selinger 2001-2017
</metadata>
<g transform="translate(0.000000,1000.000000) scale(0.100000,-0.100000)"
fill="#000000" stroke="none">
<path d="M2250 9750 l0 -250 -250 0 -250 0 0 -250 0 -250 -250 0 -250 0 0
-250 0 -250 -250 0 -250 0 0 -500 0 -500 -250 0 -250 0 0 -500 0 -500 250 0
250 0 0 -250 0 -250 250 0 250 0 0 -3000 0 -3000 3000 0 3000 0 0 500 0 500
250 0 250 0 0 250 0 250 1000 0 1000 0 0 2750 0 2750 -1000 0 -1000 0 0 250 0
250 -250 0 -250 0 0 500 0 500 -250 0 -250 0 0 250 0 250 -250 0 -250 0 0 250
0 250 -750 0 -750 0 0 250 0 250 -500 0 -500 0 0 -250 0 -250 -500 0 -500 0 0
250 0 250 -250 0 -250 0 0 -250z m6500 -5500 l0 -1750 -500 0 -500 0 0 250 0
250 -250 0 -250 0 0 1250 0 1250 250 0 250 0 0 250 0 250 500 0 500 0 0 -1750z"/>
</g>
</svg>
